<?xml version="1.0" encoding="UTF-8"?>
<svg id="Layer_1" data-name="Layer 1" xmlns="http://www.w3.org/2000/svg" viewBox="0 0 1478.47 567.63">
  <defs>
    <style>
      .cls-1 {
        fill: #fff;
        stroke-width: 0px;
      }
    </style>
  </defs>
  <g>
    <path class="cls-1" d="m796.43,187.9c3.33,1.78,3.48,2.36,1.38,4.8-14.03,16.39-31.88,26.32-52.91,30.31-30.93,5.87-60.25,1.47-86.87-15.91-22.96-14.99-36.98-36.23-40.27-63.61-3.42-28.57,3.81-54.19,24.21-75.21,12.45-12.83,27.81-20.97,44.95-25.68,20.72-5.69,41.57-6.76,62.32-.27,18.68,5.84,32.91,17.4,42.57,34.47.6,1.05,2.26,2.43-.07,3.46-1.66.73-3.23,2.01-4.73-.74-10.88-19.99-28.5-29.55-50.49-32.14-12.32-1.45-24.59-1.57-36.77,1.44-30.51,7.55-51.24,31.92-53.58,63.28-2.08,27.9,6.19,52.27,25.7,72.39,14.87,15.34,33.19,24.37,54.49,26.81,25.99,2.98,49.05-3.77,68.56-21.57.31-.28.66-.54.92-.86.26-.33.43-.73.58-.99Z"/>
    <path class="cls-1" d="m729.83,261.55c9.37,9.59,20.42,15.75,33.57,17.75,19.57,2.97,36.88-2.28,52.05-14.82,21.86-18.08,30.86-51.61,21.01-78.07-7.47-20.06-26.6-33.57-48.01-33.91-7.92-.13-15.77.37-23.45,2.5-12.41,3.44-21.49,11.01-27.66,22.23-.45.83-1.61,1.9-2.34,1.82-2.37-.24-2.67-1.14-1.4-3.45,8.28-15.09,20.77-24.97,37.7-28,26.83-4.81,50.9,1.38,70.78,20.63,11.01,10.66,16.78,24.15,18.72,39.25,2.37,18.41-.85,35.69-11.56,51.09-12.22,17.57-29.45,27.34-50.33,30.76-15.21,2.49-30.12,1.21-44.44-4.89-9.92-4.22-18.27-10.54-25.11-18.88-1.19-1.45-1.72-2.7.48-4.02Z"/>
    <path class="cls-1" d="m835.11,341.27h-72.76v-8.28h72.76v8.28Z"/>
  </g>
  <g>
    <g>
      <path class="cls-1" d="m189.81,484.54c3.61,4.45,6.9,8.48,10.15,12.54,6.59,8.21,13.1,16.48,19.77,24.62,2.55,3.11,5.81,5.27,10.01,5.72.5.05.93.86,1.39,1.32-.53.29-1.05.81-1.58.82-3.48.07-7.02.4-10.44-.1-2.51-.37-5.33-1.33-7.17-2.98-5.51-4.93-10.86-10.1-15.81-15.59-7.46-8.26-14.51-16.88-21.81-25.29-.54-.63-1.6-.8-2.42-1.19-.28.77-.8,1.55-.81,2.32-.05,12.35-.09,24.7.02,37.05.02,2.25-.68,2.89-2.83,2.74-2.49-.17-5-.11-7.5-.02-1.6.06-2.16-.57-2.11-2.13.1-2.95.09-5.91.09-8.86.03-23.72.08-47.43.03-71.15,0-2.14.5-2.87,2.75-2.83,11.59.18,23.19-.12,34.76.42,5.04.24,10.21,1.54,14.95,3.34,8.63,3.28,12.22,9.41,12.1,18.77-.11,7.76-4.5,13.7-12.53,16.95-5.99,2.43-12.31,3.02-18.68,3.33-.59.03-1.19.1-2.34.19Zm-18.75-21.49c0,3.94-.03,7.88,0,11.82.05,5.98-.82,5.23,5.18,5.11,6.8-.13,13.68,0,20.36-1.04,10.69-1.66,15.9-9.99,13.48-20.47-1.65-7.16-6.96-10.73-13.65-11.51-7.86-.91-15.85-.75-23.78-1.05-1.55-.06-1.61,1-1.6,2.14.01,5,0,10,0,15Z"/>
      <path class="cls-1" d="m343.6,528.07c-9.1-.39-17.66-2.12-24.84-8.12-4.49-3.75-7.38-8.58-8.95-14.17-.17-.6.5-1.43.77-2.15.55.45,1.36.8,1.61,1.38,6.08,14.14,20.3,21.33,35.31,17.74,1.32-.31,2.62-.76,3.87-1.3,9.44-4.13,11.36-13.78,4.27-21.25-5-5.26-11.31-8.56-17.61-11.88-6.03-3.18-12.11-6.29-17.1-11.08-4.13-3.97-7.26-8.52-8.02-14.38-.76-5.85,1.16-10.72,5.41-14.74,8.37-7.88,24.06-10.53,34.49-5.72,6.98,3.22,11.5,8.71,14.04,15.87.23.65-.06,1.47-.11,2.22-.61-.49-1.51-.84-1.8-1.48-5.86-12.87-21.24-18.61-33.36-12.41-8.08,4.13-9.64,12.49-3.55,19.24,4.87,5.41,11.22,8.67,17.58,11.87,6.57,3.31,13.02,6.78,18.48,11.84,8.39,7.77,10.24,18.61,4.51,27.01-3.82,5.6-9.28,8.83-15.8,10.24-3.01.65-6.13.85-9.19,1.25Z"/>
      <path class="cls-1" d="m519.36,526.42c-4.33,0-8.19.1-12.04-.1-.67-.03-1.58-1.21-1.88-2.04-3.86-10.58-7.69-21.17-11.38-31.81-.67-1.93-1.59-2.51-3.58-2.49-8.33.11-16.67.09-25,0-1.65-.02-2.39.54-2.94,2.07-3.71,10.24-7.52,20.44-11.29,30.65-1.47,3.99-1.46,4-6.07,3.52.24-.87.42-1.72.71-2.53,9.82-26.6,19.67-53.19,29.44-79.8.71-1.93,1.55-2.8,3.7-2.59,2.33.22,4.7.16,7.04.01,1.87-.12,2.76.46,3.43,2.33,8.57,24,17.24,47.96,25.9,71.92,1.25,3.47,2.53,6.92,3.96,10.84Zm-40.61-75.78c-.26-.01-.52-.02-.79-.04-4.26,11.63-8.51,23.27-12.81,35.01h26.15c-4.26-11.86-8.41-23.42-12.56-34.97Z"/>
      <path class="cls-1" d="m101.72,440.29c15.14.13,25.83,5.18,32.84,16.99.23.39.58.79.6,1.21.03.56-.21,1.14-.33,1.7-.61-.19-1.48-.18-1.8-.6-1.66-2.15-2.97-4.6-4.8-6.58-6.41-6.93-14.86-8.39-23.8-8.75-12.64-.52-25.08,6.7-30.12,18.08-4.9,11.06-4.4,22.28-.1,33.38,6.33,16.35,21.8,26.47,39.27,25.73,8.49-.36,15.83-3.71,22.1-9.41.34-.31.6-.73.98-.93.41-.21.92-.22,1.39-.32,0,.53.23,1.24-.03,1.57-1.13,1.42-2.31,2.82-3.62,4.06-9.33,8.83-20.67,12.02-33.2,11.28-13.38-.78-24.73-5.97-33.48-16.38-17.11-20.37-12.6-61.91,25.47-69.91,3.39-.71,6.88-.9,8.63-1.12Z"/>
      <path class="cls-1" d="m236.12,441.36c4.61,0,8.62-.11,12.63.09.82.04,1.84,1.12,2.33,1.97,6.6,11.48,13.12,23,19.68,34.51.39.68.87,1.31,1.54,2.32.69-1.03,1.16-1.68,1.56-2.36,6.6-11.13,13.19-22.27,19.78-33.41,2.11-3.56,2.6-3.75,7.23-2.76-.33.77-.56,1.52-.95,2.18-8.28,13.92-16.59,27.83-24.83,41.77-.5.85-.75,1.97-.75,2.96-.05,11.82-.06,23.65,0,35.47,0,1.72-.35,2.48-2.25,2.35-2.57-.16-5.16-.17-7.72,0-1.99.13-2.38-.68-2.37-2.49.07-11.52.07-23.04-.01-34.56-.01-1.43-.41-3.01-1.12-4.25-7.67-13.58-15.43-27.1-23.16-40.65-.5-.88-.91-1.82-1.58-3.16Z"/>
      <path class="cls-1" d="m377.67,445.39c-.77-3.7-.59-3.95,2.71-3.95,13.18,0,26.37-.04,39.55.01,10.6.04,21.2.21,31.81.27,1.47,0,2.22.28,2.21,1.98-.01,1.68-.88,1.77-2.16,1.77-9.09-.03-18.19.06-27.28-.07-2.28-.03-2.96.57-2.95,2.91.13,25.08.12,50.16.25,75.23.01,2.25-.48,3.16-2.88,2.92-2.33-.23-4.7-.18-7.04,0-2.04.15-2.54-.57-2.53-2.56.07-20.61.04-41.22.04-61.83,0-4.77-.07-9.55.04-14.32.04-1.81-.54-2.35-2.35-2.34-9.32.08-18.64.04-27.96.03-.45,0-.9-.04-1.47-.06Z"/>
      <path class="cls-1" d="m539.04,483.89c0-13.34.04-26.68-.04-40.02-.01-1.99.5-2.69,2.54-2.56,2.72.17,5.45.08,8.18.03,1.15-.02,1.72.37,1.61,1.57-.05.53,0,1.06,0,1.59,0,24.86.03,49.72-.05,74.58,0,2.32.63,2.94,2.93,2.91,10.91-.12,21.83,0,32.74-.1,2.04-.02,2.64.66,2.57,2.62-.06,1.51-.59,1.93-2.04,1.92-15.46-.04-30.92-.05-46.38.01-1.85,0-2.07-.77-2.07-2.32.04-13.41.03-26.83.03-40.24Z"/>
    </g>
    <g>
      <path class="cls-1" d="m950.91,441.37c3.89,0,7.53-.09,11.15.09.66.03,1.52,1.07,1.87,1.83,6.26,13.52,12.45,27.08,18.66,40.62,4.04,8.8,8.09,17.6,12.14,26.39.27.58.61,1.13,1.19,2.21.62-1.11,1.04-1.75,1.37-2.44,10.39-22.11,20.79-44.22,31.11-66.37.82-1.76,1.73-2.53,3.72-2.39,2.56.19,5.16.16,7.73,0,1.84-.11,2.31.54,2.3,2.33-.06,18.64-.04,37.29-.04,55.93,0,8.19-.05,16.37.04,24.56.02,1.81-.49,2.41-2.31,2.32-2.72-.14-5.46-.09-8.18-.01-1.38.04-1.88-.42-1.85-1.82.08-3.41.02-6.82.02-10.23v-60.38c-.21-.07-.42-.15-.63-.22-.42.69-.92,1.34-1.26,2.07-10.71,22.8-21.48,45.58-32.03,68.45-1.31,2.84-3.33,1.82-5.24,2.13-1.83.29-2.47-.75-3.13-2.19-10.08-22.17-20.2-44.33-30.32-66.48-.36-.79-.78-1.56-1.18-2.34-.23.03-.47.06-.7.09-.04.82-.11,1.63-.11,2.45,0,21.9,0,43.81,0,65.71,0,2.65-1.06,3.47-3.59,2.68-.38-.12-.74-.64-.91-1.06-.16-.4-.05-.9-.05-1.35.02-26.75.05-53.51.08-80.26,0-.67.08-1.33.14-2.32Z"/>
      <path class="cls-1" d="m851.78,483.52c-.53,16.75-7.11,30.21-22.35,38.53-18.19,9.94-44.06,6.84-58.7-7.13-10.1-9.63-13.78-21.8-12.68-35.51,1.92-23.91,20.69-41,48.03-40.29,11.67.3,22.4,3.57,31.36,11.38,8.65,7.53,13.12,17.21,14.08,28.57.12,1.43.16,2.87.25,4.46Zm-14.15,2.94c-.03-8.48-1.05-16.8-4.81-24.52-6.35-13.03-17.07-19.21-31.34-18.68-13.07.49-21.87,7.73-26.85,19.52-4.38,10.36-4.88,21.16-2.37,32.08,2.05,8.88,6.22,16.55,13.41,22.36,14.94,12.07,36.8,8.6,46.57-7.39,4.38-7.18,5.38-15.17,5.4-23.37Z"/>
      <path class="cls-1" d="m1391.99,528.07c-8.85-.39-17.2-2.05-24.3-7.72-4.71-3.76-7.72-8.68-9.4-14.4-.19-.64.37-1.5.59-2.25.61.46,1.52.79,1.78,1.39,6.1,14.15,20.66,21.48,35.57,17.52,2.96-.79,5.96-2.39,8.3-4.37,4.43-3.75,5.32-9.85,1.95-14.57-2.37-3.31-5.44-6.36-8.79-8.68-4.89-3.38-10.3-6.03-15.52-8.94-5.64-3.15-11.16-6.44-15.36-11.51-3.32-4.01-5.56-8.45-5.63-13.8-.06-4.47,1.49-8.3,4.51-11.55,8.53-9.16,26.04-12.02,37.04-6.04,6.06,3.3,10.12,8.33,12.39,14.79.27.77,0,1.73-.02,2.6-.62-.59-1.5-1.06-1.83-1.78-5.62-12.51-21.1-18.25-33.11-12.23-8.22,4.12-9.83,12.53-3.67,19.37,4.88,5.41,11.24,8.65,17.6,11.86,6.57,3.31,13.02,6.79,18.47,11.85,7.3,6.77,9.81,16.27,6.11,24.05-3.51,7.38-9.72,11.43-17.49,13.16-3.01.67-6.13.84-9.2,1.25Z"/>
      <path class="cls-1" d="m901.9,528.07c-6.08-.31-11.94-1.23-17.51-3.7-8.11-3.61-13.3-9.8-15.94-18.18-.22-.71.06-2.1.56-2.4,1.35-.81,1.52.62,1.87,1.47,6,14.38,21.86,21.76,36.75,17.06,1.29-.41,2.57-.94,3.76-1.57,7.39-3.94,9.45-12.02,4.23-18.56-2.64-3.3-6.12-6.11-9.68-8.44-4.98-3.27-10.55-5.64-15.58-8.85-4.44-2.83-8.74-5.99-12.62-9.54-3.56-3.26-5.71-7.6-6.31-12.54-.74-6.05,1.16-11.23,5.85-14.98,9.52-7.62,20.34-9.92,32.02-6.16,8.19,2.63,13.27,8.73,16.13,16.7.22.63-.1,1.45-.18,2.18-.6-.5-1.47-.88-1.76-1.53-5.78-12.83-21.25-18.6-33.38-12.39-8.08,4.14-9.62,12.5-3.53,19.25,4.88,5.41,11.23,8.66,17.59,11.87,6.57,3.32,13.02,6.79,18.48,11.84,9.29,8.59,10.41,20.78,2.67,29.35-3.79,4.2-8.54,6.76-14.01,7.89-3.1.64-6.28.84-9.43,1.24Z"/>
      <path class="cls-1" d="m706.08,440.51c12.93-.13,23.43,4.57,30.55,15.74.37.57.88,1.14.98,1.77.12.72-.15,1.5-.24,2.26-.63-.34-1.45-.52-1.85-1.03-1.53-1.97-2.75-4.19-4.4-6.04-4.59-5.2-10.68-7.54-17.38-8.45-9.35-1.28-18.31-.39-26.29,5.2-9.68,6.78-13.8,16.48-13.78,27.96.03,17.76,7.44,31.47,23.49,39.74,13.83,7.12,30.08,4.57,41.54-6.01.49-.45,1.35-.51,2.03-.75-.22.71-.24,1.59-.67,2.12-7.33,8.91-16.96,13.55-28.29,14.52-15.48,1.33-29.27-2.77-39.89-14.5-11.57-12.79-13.69-27.94-8.56-43.93,5.05-15.73,16.87-24.21,32.59-27.73,1.77-.4,3.58-.67,5.38-.83,1.58-.14,3.18-.03,4.77-.03Z"/>
      <path class="cls-1" d="m1067.3,441.59c.92,0,1.65,0,2.39,0,15.08,0,30.17.03,45.25-.04,1.88,0,2.75.35,2.67,2.48-.07,1.77-.89,1.9-2.29,1.9-10.91-.03-21.83-.02-32.74-.02-.45,0-.91.03-1.36,0-1.22-.09-1.82.38-1.81,1.68.02,10.31.03,20.62,0,30.92,0,1.92,1.24,1.74,2.46,1.74,8.49,0,16.98.06,25.47-.04,1.97-.02,2.45.68,2.39,2.5-.05,1.52-.6,1.9-2.04,1.89-8.56-.06-17.13.02-25.69-.07-1.95-.02-2.63.5-2.61,2.55.09,10.76.11,21.53-.01,32.29-.02,2.23.77,2.63,2.76,2.62,10.91-.08,21.83,0,32.74-.06,1.8,0,2.83.24,2.75,2.44-.06,1.8-.78,2.1-2.35,2.09-9.4-.06-18.8-.03-28.19-.03-5.99,0-11.98-.04-17.96.02-1.45.01-2-.4-2-1.93.04-27.21.03-54.42.03-81.63,0-.3.07-.59.16-1.29Z"/>
      <path class="cls-1" d="m1307.84,440.34c13.38.05,24.09,5.06,31.14,16.85.23.39.6.8.6,1.2,0,.62-.25,1.25-.39,1.87-.6-.25-1.2-.48-1.79-.76-.11-.05-.15-.25-.22-.39-4.59-8.41-11.78-12.94-21.16-14.28-9.43-1.35-18.47-.59-26.55,4.97-9.81,6.75-14.02,16.49-13.99,28.07.04,18.05,7.62,31.89,24.07,40.06,13.68,6.79,29.73,4.13,40.93-6.27.5-.46,1.35-.53,2.04-.79-.2.71-.21,1.58-.63,2.11-7.41,9.1-17.24,13.7-28.72,14.61-14.67,1.16-27.81-2.7-38.38-13.36-9.79-9.86-13.25-22.03-11.78-35.61,2.9-26.9,25.52-38.47,44.85-38.28Z"/>
      <path class="cls-1" d="m1133.18,445.45c-.75-3.82-.6-4.02,2.94-4.02,12.96,0,25.92-.04,38.87.01,10.75.04,21.51.21,32.26.27,1.46,0,2.23.26,2.21,1.98-.02,1.68-.87,1.78-2.16,1.77-9.09-.03-18.19.06-27.28-.07-2.27-.03-2.97.55-2.96,2.9.13,25.08.12,50.16.25,75.24.01,2.25-.47,3.16-2.87,2.93-2.33-.23-4.7-.18-7.04,0-2.05.15-2.54-.58-2.53-2.56.07-20.76.04-41.52.04-62.29,0-4.62-.07-9.25.04-13.87.04-1.82-.57-2.34-2.36-2.33-9.32.08-18.64.04-27.96.04-.45,0-.9,0-1.46,0Z"/>
      <path class="cls-1" d="m1229.06,526.42c0-1.07,0-1.81,0-2.56,0-26.53,0-53.06,0-79.59q0-2.9,2.99-2.9c2.5,0,5.01.06,7.5-.02,1.42-.05,1.96.49,1.79,1.85-.04.3,0,.61,0,.91,0,26.53-.03,53.06.05,79.59,0,2.17-.54,2.91-2.76,2.78-3.08-.19-6.19-.05-9.57-.05Z"/>
    </g>
  </g>
</svg>